<?xml version="1.0" encoding="UTF-8"?>
<!DOCTYPE svg PUBLIC "-//W3C//DTD SVG 1.1//EN" "http://www.w3.org/Graphics/SVG/1.1/DTD/svg11.dtd">
<!-- Creator: CorelDRAW 2020 (64-Bit) -->
<svg xmlns="http://www.w3.org/2000/svg" xml:space="preserve" width="4000px" height="4000px" version="1.1" shape-rendering="geometricPrecision" text-rendering="geometricPrecision" image-rendering="optimizeQuality" fill-rule="evenodd" clip-rule="evenodd"
viewBox="0 0 4000 4000"
 xmlns:xlink="http://www.w3.org/1999/xlink"
 xmlns:xodm="http://www.corel.com/coreldraw/odm/2003">
 <g id="Layer_x0020_1">
  <metadata id="CorelCorpID_0Corel-Layer"/>
  <path fill="#FEFEFE" d="M2115.36 2500.19c0.33,-0.79 1.36,-1.91 2.01,-2.18 1.7,-1.59 5.88,-1.53 8.11,1.45 1.03,1.37 1.16,2.68 1.16,4.68 0,1.93 0.01,3.85 0,5.77 -0.94,0.34 -0.83,0.55 -0.86,1.63 -0.87,0.59 -0.89,0.42 -0.85,1.82l8.54 0c0.07,-2.14 -0.7,-1.29 -0.86,-1.94 0,-1.17 0.07,-1.03 -0.85,-1.53l-0.02 -13.69 0.88 -0.02 0.8 -3.38 -4.23 0.03 -0.01 -3.47 -17.1 0 -0.02 3.44 -4.25 0.02c0.13,0.65 0.33,1.35 0.49,2 0.32,1.31 -0.09,1.36 1.18,1.38l-0.04 13.69c-0.81,0.49 -0.8,0.31 -0.8,1.53 -0.33,0.81 -0.86,-0.23 -0.85,1.94l8.52 -0.01c-0.04,-2.12 -0.55,-1.14 -0.84,-1.93 0.01,-1.17 0.03,-1.05 -0.82,-1.53 -0.16,-1.48 -0.03,-3.68 -0.03,-5.24 0,-1.57 -0.06,-3.46 0.74,-4.46z"/>
 </g>
</svg>
